# xmcd
#
# Track frame offsets: 
#        150
#        16675
#        35005
#        63450
#        75802
#        89640
#        102890
#        123025
#        135442
#        155285
#        167562
#        187037
#        206130
#
# Disc length: 2995 seconds
#
# Revision: 5
# Processed by: cddbd v1.5.2PL0 Copyright (c) Steve Scherf et al.
# Submitted via: ExactAudioCopy v0.99pb4
#
DISCID=9c0bb10d
DTITLE=Johnny Winter - Let me in
DYEAR=1991
DGENRE=Blues
TTITLE0=Illustrated man
TTITLE1=Barefootin'
TTITLE2=Life is hard
TTITLE3=Hey you
TTITLE4=Blue moon
TTITLE5=Sugaree
TTITLE6=Medicine man
TTITLE7=You're humbuggin' me
TTITLE8=If you got a good woman
TTITLE9=Got to find my baby
TTITLE10=Shame shame shame
TTITLE11=Let me in
TTITLE12=You lie too much
EXTD=
EXTT0=
EXTT1=
EXTT2=
EXTT3=
EXTT4=
EXTT5=
EXTT6=
EXTT7=
EXTT8=
EXTT9=
EXTT10=
EXTT11=
EXTT12=
PLAYORDER=
